<svg id="Layer_1" enable-background="new 0 0 510.415 510.415" height="512" viewBox="0 0 510.415 510.415" width="512" xmlns="http://www.w3.org/2000/svg"><g><path d="m343.415 200.907-86.111-30.983-5.376-5.907-21.117 9.226-10.244 21.043 8.16 8.965c2.392 2.628 5.391 4.631 8.735 5.834l91.203 32.815c11.306 4.069 23.794-1.789 27.872-13.122 4.073-11.319-1.802-23.798-13.122-27.871z" fill="#f7a892"/><g><path d="m251.927 164.017-42.658-46.869c-8.097-8.897-21.875-9.546-30.772-1.447-8.897 8.098-9.545 21.875-1.447 30.772l43.517 47.813z" fill="#4699f2"/></g><path d="m227.005 251.176h274.589v26.062h-274.589z" fill="#b48255"/><g><path d="m376.939 239.272-10.723-31.811c-1.145-3.398-4.331-5.686-7.916-5.686h-50.366c-6.182 0-11.194 5.011-11.194 11.194v2.763h-7.904l-6.27-28.937c-.482-2.223-2.449-3.81-4.724-3.81h-12.946c-3.082 0-5.376 2.845-4.724 5.857l13.731 63.365h22.837 70.909c6.706 0 11.432-6.581 9.29-12.935zm-34.098-12.675h-20.369c-3.313 0-6-2.687-6-6s2.687-6 6-6h20.369c3.313 0 6 2.687 6 6s-2.686 6-6 6z" fill="#783c28"/></g><g fill="#b48255"><path d="m408.274 235.393c3.293-2.668 6.55-6.158 7.537-10.047.457-1.803 2.538-2.649 4.172-1.76l9.893 5.378c1.917 1.042 2.053 3.759.23 4.958-3.65 2.401-10.118 5.596-19.692 6.604-2.867.301-4.38-3.318-2.14-5.133z"/><path d="m462.467 220.96c3.328-2.625 6.63-6.073 7.667-9.949.481-1.797 2.572-2.615 4.195-1.706l9.822 5.506c1.904 1.067 2.004 3.785.165 4.961-3.68 2.354-10.19 5.464-19.776 6.347-2.87.265-4.336-3.374-2.073-5.159z"/><path d="m444.135 191.253c.363-4.223.108-8.99-2.008-12.398-.981-1.58-.147-3.666 1.626-4.226l10.736-3.395c2.081-.658 4.131 1.129 3.731 3.274-.802 4.294-2.989 11.169-8.904 18.764-1.771 2.273-5.428.853-5.181-2.019z"/></g><g><path d="m28.393 509.569c-13.973-3.631-22.356-17.902-18.725-31.875l54.805-211.467c3.632-13.973 17.518-20.304 31.49-16.672 13.973 3.631 22.356 17.902 18.726 31.875l-54.42 209.414c-3.639 13.996-17.927 22.35-31.876 18.725z" fill="#5f6e9b"/></g><g><path d="m178.699 487.263-12.874-111.649-38.422-98.292c-5.256-13.446 1.384-28.607 14.83-33.863 13.448-5.257 28.607 1.384 33.864 14.83l39.655 101.449c.819 2.095 1.364 4.288 1.622 6.522l13.262 115.016c1.654 14.342-8.632 27.309-22.974 28.963-14.343 1.652-27.309-8.632-28.963-22.976z" fill="#414b82"/></g><path d="m142.357 287.935-77.884-21.709 42.014-150.731c4.523-16.225 21.342-25.712 37.567-21.19l52.39 14.603c16.225 4.523 25.712 21.342 21.19 37.567l-32.742 117.468c-5.121 18.372-24.164 29.113-42.535 23.992z" fill="#64afff"/><circle cx="186.229" cy="45.159" fill="#ffb69e" r="45.147"/><path d="m268.231 208.174-74.107-13.641-11.638-26.56h-24.015l-15.565 18.362 15.762 36.08c2.872 6.707 8.908 11.53 16.083 12.851l85.594 15.755c11.842 2.181 23.192-5.663 25.367-17.48 2.178-11.832-5.648-23.189-17.481-25.367z" fill="#ffb69e"/><g><g><path d="m182.486 167.973-19.961-45.553c-4.735-11.061-17.541-16.195-28.599-11.454-11.06 4.735-16.189 17.539-11.454 28.599l20.433 46.77z" fill="#4699f2"/></g></g></g></svg>