<?xml version="1.0" encoding="iso-8859-1"?>
<!-- Generator: Adobe Illustrator 19.0.0, SVG Export Plug-In . SVG Version: 6.00 Build 0)  -->
<svg version="1.1" id="Capa_1" xmlns="http://www.w3.org/2000/svg" xmlns:xlink="http://www.w3.org/1999/xlink" x="0px" y="0px"
	 viewBox="0 0 496 496" style="enable-background:new 0 0 496 496;" xml:space="preserve">
<g>
	<rect x="96" y="104" style="fill:#FFA64D;" width="96" height="16"/>
	<rect x="8" y="392" style="fill:#FFA64D;" width="480" height="96"/>
</g>
<g>
	<path style="fill:#333333;" d="M200,104V88c0-8.824-7.176-16-16-16h-8v-8.736c0-11.888,5.904-22.92,15.792-29.512
		C196.936,30.328,200,24.6,200,18.424C200,8.264,191.736,0,181.576,0h-12.04c-23.664,0-44.632,14.192-53.424,36.168
		C113.384,43,112,50.184,112,57.536V72h-8c-8.824,0-16,7.176-16,16v96c0,8.824,7.176,16,16,16h8v9.368
		c-9.312,3.304-16,12.2-16,22.632v8c0,13.232,10.768,24,24,24h48c13.232,0,24-10.768,24-24v-8c0-10.432-6.688-19.328-16-22.632V200
		h8c8.824,0,16-7.176,16-16v-16h296v-64H200z M128,57.536c0-5.304,1-10.496,2.968-15.432C137.32,26.248,152.456,16,169.536,16h12.04
		c1.336,0,2.424,1.088,2.424,2.424c0,0.816-0.4,1.56-1.08,2.016C168.568,30.008,160,46.016,160,63.264V72h-32V57.536z M168,224
		c4.408,0,8,3.584,8,8v8c0,4.416-3.592,8-8,8h-48c-4.408,0-8-3.584-8-8v-8c0-4.416,3.592-8,8-8h8v-24h32v24H168z M184.008,184H104
		V88h80v16l0,0v64h0.008V184z M480,152H200v-32h280V152z"/>
	<path style="fill:#333333;" d="M168,296h32v-16H88v16h32v88H0v112h496V384H168V296z M136,296h16v88h-16V296z M16,400h16v80H16V400z
		 M480,416h-32v16h32v16h-48v16h48v16H48v-48h88c4.408,0,8,3.584,8,8s-3.592,8-8,8h-24v16h24c13.232,0,24-10.768,24-24
		s-10.768-24-24-24H48v-16h432V416z"/>
	<rect x="176" y="432" style="fill:#333333;" width="96" height="16"/>
	<path style="fill:#333333;" d="M408,440c0-13.232-10.768-24-24-24h-24v16h24c4.408,0,8,3.584,8,8s-3.592,8-8,8h-88v16h88
		C397.232,464,408,453.232,408,440z"/>
	<rect x="32" y="216" style="fill:#333333;" width="16" height="16"/>
	<rect x="32" y="248" style="fill:#333333;" width="16" height="16"/>
	<rect x="48" y="232" style="fill:#333333;" width="16" height="16"/>
	<rect x="16" y="232" style="fill:#333333;" width="16" height="16"/>
	<rect x="240" y="264" style="fill:#333333;" width="16" height="16"/>
	<rect x="240" y="296" style="fill:#333333;" width="16" height="16"/>
	<rect x="256" y="280" style="fill:#333333;" width="16" height="16"/>
	<rect x="224" y="280" style="fill:#333333;" width="16" height="16"/>
</g>
<g>
</g>
<g>
</g>
<g>
</g>
<g>
</g>
<g>
</g>
<g>
</g>
<g>
</g>
<g>
</g>
<g>
</g>
<g>
</g>
<g>
</g>
<g>
</g>
<g>
</g>
<g>
</g>
<g>
</g>
</svg>
