<svg id="Capa_1" enable-background="new 0 0 404.423 404.423" height="512" viewBox="0 0 404.423 404.423" width="512" xmlns="http://www.w3.org/2000/svg"><g><path d="m201.81 98.127s-21.289 29.749-21.917 37.914 37.683 21.354 45.22 23.238 27.235 7.223 31.988 11.305 1.944 4.54 10.405 0 10.363-4.396 10.363-7.537c0-3.14-14.604-8.95-21.433-10.128-6.83-1.178-54.626-54.792-54.626-54.792z" fill="#f7be56"/><path d="m282.097 43.89c-.486 3.653-4.984 1.332-4.984 1.332s-2.16 1.17-1.656 4.481c.486 3.329-1.008 2.177-1.008 2.177s-.486.828-.162 1.494c.342.666.342 1.494-1.62 2.321-1.961.828-.036 3.329-.036 3.329.666 5.327-7.99 3.167-11.157 4.661-3.149 1.494-6.424 11.247-6.424 11.247 14.936 21.486 12.597 32.679 6.586 55.029-6.029 22.35-13.155 67.608-13.155 67.608-13.244 2.411-23.286 3.077-30.88 2.681-25.769-1.332-23.43-14.972-23.43-14.972s4.319-8.656 3.887-20.353c-.432-11.679.432-57.998 5.633-75.328 5.2-17.311 28.342-27.587 28.342-27.587s3.005-10.131 1.997-15.62c-.99-5.488-7.144-17.473-1.997-32.769 5.164-15.314 17.473-8.494 27.784-8.656s11.481 6.496 11.481 6.496c6.286 5.904 3.349 9.207 4.422 17.224 0 0 .42 2.669.755 4.029 2.666 10.817 6.126 7.523 5.622 11.176z" fill="#fcd462"/><path d="m266.488 2.641c-2.879-1.92-21.31-6.911-35.516 5.375-14.206 12.287-3.072 42.043 1.92 42.619s12.094-8.063 12.67-14.398 2.88-6.143 10.175-6.719c5.599-.442 4.413 7.485 3.559 11.194-.22.955.506 1.86 1.486 1.86.773 0 1.424-.572 1.514-1.34.232-1.992.651-6.052.896-11.139.351-7.295 2.912-8.063 1.376-11.711s-2.112-5.183 0-7.487 7.705 1.12 7.705 1.12c.602-4.831-2.905-7.455-5.785-9.374z" fill="#4d5c7d"/><path d="m261.637 129.961c-6.029 22.35-13.155 67.608-13.155 67.608l-30.88 2.681c-25.769-1.332-23.43-14.972-23.43-14.972s4.319-8.656 3.887-20.353c-.432-11.679.432-57.998 5.633-75.328 5.2-17.311 28.342-27.587 28.342-27.587l23.016 12.921c14.936 21.487 12.597 32.68 6.587 55.03z" fill="#27a2db"/><path d="m300.452 347.477-5.74-68.88c-.168-2.023-.787-3.983-1.811-5.736l-36.021-61.695-8.395-13.591-27.982 8.395 7.195 39.175 43.972 44.371s-5.596 22.785 7.196 52.366 13.191 44.254 13.191 44.254h13.591l1.755-15.536c.001-.001-5.752-8.733-6.951-23.123z" fill="#fcd462"/><path d="m300.099 343.244h-20.66c12.205 28.646 12.619 42.89 12.619 42.89h13.591l1.755-15.535s-5.753-8.732-6.952-23.122c-.095-1.146-.216-2.591-.353-4.233z" fill="#3ea69b"/><path d="m189.12 218.557c-18.304 31.574-8.237 66.351-8.237 66.351s-26.54-4.118-43.013-2.745-51.708 5.034-51.708 5.034l-3.203 16.931 17.846-.457c25.11 5.621 71.681 5.87 87.717 5.776 3.45-.02 6.584-1.948 8.182-5.006l30.995-59.297c0-.001-20.276-58.16-38.579-26.587z" fill="#fcd462"/><path d="m131.933 282.681c-17.747 1.603-45.771 4.515-45.771 4.515l-3.203 16.931 17.846-.458c8.744 1.958 19.797 3.393 31.129 4.446v-25.434z" fill="#44c4a1"/><path d="m246.622 75.936c-12.346-10.371-31.433-2.499-33.194 13.528-.023.213-.045.429-.066.646-2.045 21.729 1.789 28.887 14.316 30.676 12.526 1.789 26.842 2.556 31.954-5.368 4.219-6.539 4.957-24.391-13.01-39.482z" fill="#fcd462"/><path d="m290.691 156.87s4.556-.502 3.721-3.066c-.443-1.361-2.667-1.41-3.631-1.3 1.08-.438 2.235-1.284 1.758-2.849-.832-2.735-4.034-1.322-5.471-1.254-15.083 2.227-28.747.775-40.059-6.774l3.209-43.5s-5.199 12.334-7.465 22.736l-20.616-12.816s-3.072 29.182-1.843 39.933 21.503 11.98 38.09 15.359c16.588 3.379 27.646 3.379 29.489 3.379 0 0 3.458.388 4.991-.308 2.205-1.001 2.246-4.834-3.128-4.531 0 0 4.689.575 5.257-.489.68-1.276 1.462-5.23-4.302-4.52z" fill="#fcd462"/><path d="m195.167 182.896s-5.453 13.662-8.71 21.221-1.184 26.803-1.184 26.803l40.298 17.989h7.663s8.29-11.735 20.428-17.1 5.625-27.691 5.625-27.691l-9.839-12.486c.001-.001-34.32 10.445-54.281-8.736z" fill="#4d5c7d"/><path d="m248.496 121.48 1.349-18.294.786 18.294z" fill="#dc8744"/><path d="m335.108 375.626c-5.511 3.086-17.721-.89-23.244-5.085-1.446-1.098-3.483-1.013-4.701.333-2.713 2.996-8.266 7.275-18.358 8.291-2.062.208-3.456 2.212-3.029 4.24l3.447 16.372s2.002 4.688 12.893 3.233c12.376-1.653 16.1-8.855 25.76-11.27s24.138-13.161 24.138-19.065c-.001-5.905-10.198-.806-16.906 2.951z" fill="#d5d6db"/><path d="m352.008 372.68c0 5.902-13.406 17.707-23.07 20.119-9.663 2.411-13.424 9.394-25.769 11.265-12.345 1.889-13.946-4.283-13.946-4.283l-.324-1.512c1.314 1.691 4.751 4.175 13.191 2.897 12.345-1.872 16.106-8.854 25.751-11.265 9.357-2.339 22.224-13.478 23.052-19.543.701.396 1.115 1.134 1.115 2.322z" fill="#4d5c7d"/><path d="m64.826 320.967c1.714-6.079 13.159-11.901 20.032-12.84 1.799-.246 3.179-1.746 3.089-3.559-.2-4.036.701-10.989 7.118-18.844 1.311-1.605.88-4.008-.856-5.14l-14.014-9.139s-4.091-3.226-11.492 6.831c-7.4 10.056-5.123 17.646-10.246 26.185s-7.673 26.375-3.498 30.549c4.175 4.173 7.78-6.643 9.867-14.043z" fill="#d5d6db"/><path d="m54.958 335.001c-4.174-4.174-3.041-22.001 2.087-30.539s2.85-16.135 10.256-26.187c7.393-10.065 12.89-6.833 12.89-6.833l1.298.84c-2.125-.267-6.311.407-11.376 7.279-7.406 10.052-5.128 17.649-10.243 26.174-4.963 8.271-6.184 25.245-2.481 30.119-.776.216-1.591-.013-2.431-.853z" fill="#4d5c7d"/></g></svg>